# xmcd
#
# Track frame offsets:
#	150
#	13272
#	25535
#	39575
#	53157
#	64807
#	76020
#	87907
#	101622
#	113172
#	126342
#	137540
#	150102
#	162537
#	173380
#	185400
#	194860
#	204775
#	214000
#	225265
#	233795
#	245327
#	254827
#	265732
#	278915
#	292290
#
# Disc length: 4045 seconds
#
# Revision: 1
# Processed by: cddbd v1.5.2PL0 Copyright (c) Steve Scherf et al.
# Submitted via: EasyCDDAExtractor 11.1.0.1
#
DISCID=650fcb1a
DTITLE=Various Artist - The Chess Rarities - Disc 1
DYEAR=1996
DGENRE=Blues
TTITLE0=The Five Blazers - Chicago Boogie
TTITLE1=Clarence Samuels - Boogie Woogie Blues
TTITLE2=The Dozier Boys - Hey Jack
TTITLE3=Earl And His Blues Rockers - Little Boy, Little Boy
TTITLE4=Jackie Brenston - Leo The Louse
TTITLE5=Bobby Lewis - Mumbles Blues
TTITLE6=Mitzi Mars - Roll 'Em
TTITLE7=The Coronets - Should I
TTITLE8=Jimmy Binkley And His Combo - Wine, Wine, Wine
TTITLE9=The El Rays - Darling I Know
TTITLE10=The Swans - Will You Be Mine
TTITLE11=Larry Liggett - The Man Is Walking
TTITLE12=The Flamingos - Need Your Love (alternate)
TTITLE13=The Moonglows - No One
TTITLE14=Paul Gayten - If You Love Me, Tell Me So
TTITLE15=The Four Tops - Country Girl
TTITLE16=Bobby Charters - Laura Lee
TTITLE17=Clarence 'Frogman' Henry - Lady With The Hat Box
TTITLE18=Jimmy Nelson - Mr Big Wheel
TTITLE19=The Kents - I Found My Girl
TTITLE20=Bo Diddley - I Love You So (first edition)
TTITLE21=The Brothers - Lazy Susan
TTITLE22=Oscar Boyd And The Calvaes - Anna Macora
TTITLE23=Billy 'The Kid' Emerson - Um Huh My Baby
TTITLE24=The Falcons - This Heart Of Mine
TTITLE25=Etta And Harvey - My Heart Cries
EXTD=
EXTT0=
EXTT1=
EXTT2=
EXTT3=
EXTT4=
EXTT5=
EXTT6=
EXTT7=
EXTT8=
EXTT9=
EXTT10=
EXTT11=
EXTT12=
EXTT13=
EXTT14=
EXTT15=
EXTT16=
EXTT17=
EXTT18=
EXTT19=
EXTT20=
EXTT21=
EXTT22=
EXTT23=
EXTT24=
EXTT25=
PLAYORDER=
